<svg width="24" height="24" viewBox="0 0 24 24" fill="none" xmlns="http://www.w3.org/2000/svg">
  <path d="M11.5 2C6.08 2 2 6.08 2 11.5C2 16.92 6.08 21 11.5 21C16.92 21 21 16.92 21 11.5C21 6.08 16.92 2 11.5 2ZM11.5 19C7.36 19 4 15.64 4 11.5C4 7.36 7.36 4 11.5 4C15.64 4 19 7.36 19 11.5C19 15.64 15.64 19 11.5 19ZM10.1 7.1C9.6 7.6 9.3 8.3 9.3 9.1C9.3 9.9 9.6 10.6 10.1 11.1C10.6 11.6 11.3 11.9 12.1 11.9C12.9 11.9 13.6 11.6 14.1 11.1C14.6 10.6 14.9 9.9 14.9 9.1C14.9 8.3 14.6 7.6 14.1 7.1C13.6 6.6 12.9 6.3 12.1 6.3C11.3 6.3 10.6 6.6 10.1 7.1ZM10.1 12.5C9.7 12.1 9.5 11.6 9.5 11.1C9.5 10.6 9.7 10.1 10.1 9.7C10.5 9.3 11 9.1 11.5 9.1C12 9.1 12.5 9.3 12.9 9.7C13.3 10.1 13.5 10.6 13.5 11.1C13.5 11.6 13.3 12.1 12.9 12.5C12.5 12.9 12 13.1 11.5 13.1C11 13.1 10.5 12.9 10.1 12.5Z" fill="#000"/>
</svg>
