<?xml version="1.0" standalone="no"?>
<!DOCTYPE svg PUBLIC "-//W3C//DTD SVG 20010904//EN"
 "http://www.w3.org/TR/2001/REC-SVG-20010904/DTD/svg10.dtd">
<svg version="1.0" xmlns="http://www.w3.org/2000/svg"
 width="920.000000pt" height="920.000000pt" viewBox="0 0 920.000000 920.000000"
 preserveAspectRatio="xMidYMid meet">

<g transform="translate(0.000000,920.000000) scale(0.100000,-0.100000)"
fill="#FFBC5E" stroke="none">
<path d="M4360 9194 c-1329 -78 -2529 -696 -3356 -1729 -477 -594 -809 -1332
-933 -2072 -53 -314 -65 -458 -65 -788 0 -363 26 -632 94 -960 232 -1126 939
-2183 1895 -2834 531 -362 1141 -618 1727 -725 794 -146 1553 -100 2298 139
1278 411 2336 1396 2843 2650 333 823 418 1697 251 2603 -126 691 -461 1416
-917 1987 -711 890 -1717 1483 -2832 1669 -82 14 -215 32 -295 41 -141 15
-580 26 -710 19z m546 -694 c702 -55 1397 -308 1963 -715 944 -677 1533 -1715
1631 -2870 13 -155 13 -456 0 -621 -84 -1074 -612 -2071 -1455 -2746 -909
-729 -2104 -1016 -3239 -777 -448 94 -830 243 -1211 472 -1092 655 -1796 1789
-1895 3051 -65 827 138 1663 574 2365 654 1051 1766 1734 2996 1840 139 12
487 13 636 1z"/>
<path d="M4335 7774 c-16 -2 -88 -11 -160 -20 -411 -49 -859 -207 -1230 -434
-684 -418 -1165 -1047 -1404 -1835 -86 -282 -116 -512 -116 -885 0 -420 35
-644 159 -1015 156 -469 412 -882 766 -1235 488 -488 1112 -801 1800 -902 134
-19 195 -23 450 -23 255 0 316 3 450 23 938 139 1749 667 2250 1467 184 293
319 617 400 958 106 447 106 1006 0 1454 -174 730 -591 1369 -1187 1817 -369
277 -815 481 -1248 571 -224 46 -336 57 -625 60 -151 2 -288 1 -305 -1z m420
-610 c108 -26 196 -75 285 -160 67 -64 88 -93 126 -168 55 -113 78 -219 70
-327 -33 -424 -452 -700 -849 -560 -290 101 -472 418 -413 716 26 130 82 233
179 330 165 165 373 224 602 169z m-1935 -1394 c47 -5 234 -21 415 -34 744
-57 819 -60 1350 -61 546 0 637 5 1390 67 482 40 564 41 627 10 59 -29 89 -75
90 -139 3 -121 -86 -178 -312 -202 -52 -6 -264 -19 -470 -31 -751 -41 -739
-40 -813 -101 -75 -61 -97 -139 -97 -340 0 -250 28 -537 91 -919 87 -530 183
-924 335 -1377 117 -348 135 -435 96 -469 -27 -22 -136 -64 -170 -64 -75 0
-163 79 -217 195 -61 130 -203 623 -334 1154 -80 327 -112 391 -194 391 -32 0
-46 -7 -71 -33 -37 -39 -57 -100 -86 -257 -33 -179 -93 -417 -175 -700 -93
-320 -135 -442 -187 -547 -74 -150 -129 -192 -246 -193 -113 0 -152 40 -152
154 0 41 9 93 25 143 218 691 411 1520 479 2058 37 293 44 603 16 698 -17 57
-63 103 -128 128 -48 18 -91 23 -267 30 -378 16 -1042 77 -1145 105 -109 30
-160 87 -160 178 0 142 80 182 310 156z"/>
</g>
</svg>
